<svg id="light" xmlns="http://www.w3.org/2000/svg" viewBox="0 0 512 512"><defs><style>.cls-1{fill:#ff5ea2;}</style></defs><path class="cls-1" d="M458.7,512H53.3A53.35,53.35,0,0,1,0,458.7V53.3A53.35,53.35,0,0,1,53.3,0H458.6A53.37,53.37,0,0,1,512,53.3V458.6A53.37,53.37,0,0,1,458.7,512ZM53.3,21.3a32.09,32.09,0,0,0-32,32V458.6a32.09,32.09,0,0,0,32,32H458.6a32.09,32.09,0,0,0,32-32V53.3a32.09,32.09,0,0,0-32-32Z" transform="translate(0 0)"/><path class="cls-1" d="M352,170.7H160a10.7,10.7,0,0,1,0-21.4H352a10.7,10.7,0,0,1,0,21.4Z" transform="translate(0 0)"/><path class="cls-1" d="M352,266.7H160a10.7,10.7,0,0,1,0-21.4H352a10.7,10.7,0,0,1,0,21.4Z" transform="translate(0 0)"/><path class="cls-1" d="M352,362.7H160a10.7,10.7,0,0,1,0-21.4H352a10.7,10.7,0,0,1,0,21.4Z" transform="translate(0 0)"/></svg>